<?xml version="1.0" encoding="utf-8"?>
<!-- Generator: Adobe Illustrator 26.5.0, SVG Export Plug-In . SVG Version: 6.00 Build 0)  -->
<svg version="1.1" id="Layer_1" xmlns="http://www.w3.org/2000/svg" xmlns:xlink="http://www.w3.org/1999/xlink" x="0px" y="0px"
	 viewBox="0 0 512 512" style="enable-background:new 0 0 512 512;" xml:space="preserve">
<style type="text/css">
	.st0{fill:#FF6600;}
</style>
<g id="XMLID_1_">
	<path id="XMLID_2_" class="st0" d="M477.93,204.83H317.12c-8.09,0-14.58-6.5-14.58-14.58V22.54C302.53,10.08,292.46,0,280,0h-57.4
		c-12.46,0-22.54,10.08-22.54,22.54v166.65c0,8.62-7.03,15.64-15.64,15.64l-52.76,0.27c-8.75,0-15.78-7.03-15.78-15.78l0.53-166.65
		c0-12.46-10.08-22.54-22.54-22.54H36.59c-12.46,0-22.54,10.08-22.54,22.54v469.31c0,11,8.88,20.02,19.89,20.02h443.99
		c11,0,20.02-8.88,20.02-20.02V224.85C497.95,213.71,489.06,204.83,477.93,204.83z M402.63,381.02c0,14.45-11.67,26.12-26.12,26.12
		h-45.34c-14.45,0-26.12-11.67-26.12-26.12v-45.34c0-14.45,11.67-26.12,26.12-26.12h45.34c14.45,0,26.12,11.67,26.12,26.12V381.02z"
		/>
</g>
</svg>
