<?xml version="1.0" encoding="utf-8"?>
<!-- Generator: Adobe Illustrator 27.0.0, SVG Export Plug-In . SVG Version: 6.00 Build 0)  -->
<svg version="1.1" id="Layer_1" xmlns="http://www.w3.org/2000/svg" xmlns:xlink="http://www.w3.org/1999/xlink" x="0px" y="0px"
	 viewBox="0 0 512 512" style="enable-background:new 0 0 512 512;" xml:space="preserve">
<style type="text/css">
	.st0{fill:#D1A41A;}
	.st1{fill:#FFDC76;}
</style>
<g id="XMLID_1_">
	<path id="XMLID_2_" class="st0" d="M88.68,313.16c5.89,7.15,12.35,14.45,19.36,21.75c-20.76,6.17-34.37,17.82-42.79,28.06
		c-13.47,16.13-20.48,37.6-18.94,55.98H10.54C17.83,403.37,46.31,358.47,88.68,313.16"/>
	<path id="XMLID_3_" class="st0" d="M502.4,428.76h-43.49c-99.61-52.05-187.15-88.66-280.02-96.66c0.14-12.91,2.53-27.64,6.87-43.91
		l-8.56-2.24c-4.49,16.83-6.87,31.99-7.15,45.59c-9.68-0.7-19.36-0.98-29.32-0.98c-8.28,0-15.99,0.7-22.87,2.1
		c-8.98-8.98-16.69-17.68-23.29-25.81c42.93-44.61,113.5-85.02,174.94-100.17c17.26,57.52,54.43,96.94,99.47,123.46
		c3.37-1.82,6.59-3.93,9.68-5.89l78.56,84.6l3.51-0.28c21.46-1.82,33.67,9.82,36.9,13.47C500.3,424.41,501.7,426.79,502.4,428.76"/>
	<path id="XMLID_4_" class="st1" d="M464.1,145.51c1.54,78.14-38.3,140.29-94,172.14c-94.7-47.14-112.51-166.67-96.38-230.92
		c4.49,24.55,12.63,39.84,30.3,47.42c38.44-10.94,91.33-11.92,130.33-1.12c16.27-11.78,22.59-29.88,25.95-45.59
		C464.52,105.95,464.1,145.51,464.1,145.51"/>
	<path id="XMLID_5_" d="M336.44,156.03c3.23,0,5.61,1.26,7.3,4.21c3.93,6.73,3.23,19.92,0,33.67H317.5v5.75h24.69
		c-2.67,9.4-6.31,18.8-10.52,26.09l-1.4,2.38l32.83,20.62l-18.52,12.21l3.23,4.77l20.62-13.61l22.31,14.59l3.09-4.91l-20.62-12.77
		c0,0,30.86-20.06,32.41-21.04l0,0l0,0c-6.73-9.96-8.98-18.66-6.17-28.34h2.38h24.83v-5.75h-25.11
		c4.63-10.94,11.08-20.62,34.23-20.62v-5.75c-21.32,0-34.09,8.42-40.12,26.37h-46.02c3.23-14.31,3.79-28.48-0.98-36.62
		c-2.67-4.63-6.87-7.01-12.21-7.01c-18.94,0-26.52,19.36-26.8,20.2l5.33,1.96C315.39,171.74,321.57,156.03,336.44,156.03z
		 M368.42,245.26l-24.27-15.29h47.42L368.42,245.26z M393.53,199.66c-2.1,6.45-1.26,16.27,3.79,24.69h-58.36
		c3.51-7.15,6.87-15.85,9.26-24.69H393.53z"/>
	<polyline id="XMLID_9_" points="315.11,172.45 315.11,172.45 315.11,172.45 315.11,172.45 	"/>
	<path id="XMLID_10_" d="M504.51,415.71c-9.68-10.94-28.76-15.99-44.75-15.71c-10.1-12.07-63.97-68.88-74.78-80.39
		c22.45-15.71,41.95-36.2,56.96-60.61h29.74v-6.31h-25.95c1.68-2.95,3.23-5.89,4.77-8.98h21.18v-6.31h-18.1
		c13.47-29.04,20.9-62.29,20.2-98.77h0.14c0-9.96-3.09-52.19-8.84-63.83c-15.43,5.89-43.63,24.97-50.08,44.47
		c-30.58-4.63-65.1-4.07-95.26,1.26c-5.05-21.04-30.3-37.04-49.52-46.02c-8,13.61-11.64,45.17-10.66,67.48h-0.14
		c0.7,20.2,3.51,38.72,7.86,55.84C201.2,214.25,129.37,257.46,89.1,299.27c-18.8-25.39-26.23-46.3-28.48-62.01
		c-2.81-19.92,1.96-38.3,13.75-52.89c18.52-23.01,44.75-24.55,71.83-20.06c-0.56,4.21,0,8.28,1.68,10.8
		c7.15,10.52,45.59,14.31,68.46,4.07c-16.98-23.71-51.21-35.21-60.75-30.58c-3.09,1.54-5.47,4.35-7.15,7.72
		c-9.4-1.68-18.66-2.95-25.39-2.81c-23.85,0.14-42.09,8.56-55.7,25.39c-13.33,16.69-18.8,37.32-15.71,59.76
		c2.95,21.32,13.47,43.91,31.14,67.34c-2.95,3.09-5.75,6.31-8.56,9.26C31.3,363.38-0.12,415.01-0.12,423.57v4.49h56.68l-0.98-5.19
		c-3.23-16.98,3.23-38.02,16.27-53.87c8.28-9.96,21.89-21.32,43.21-26.52c19.08,18.52,43.21,38.3,70.29,57.24h42.09v-4.49
		c0-5.05-2.53-9.4-7.01-12.35c-6.59-4.35-16.98-4.91-26.37-1.68c-8.98-9.96-14.03-23.43-15.15-39.98
		c91.47,8.14,179.01,45.03,277.64,96.66h54.29l0.7-3.51C512.92,428.76,510.12,422.02,504.51,415.71z M273.59,86.73
		c4.49,24.55,12.63,39.84,30.3,47.42c15.57-4.49,33.67-7.3,52.19-8.28l15.29,33.67l9.82-33.95c18.66,0.56,37.04,3.09,53.03,7.44
		c16.27-11.78,22.59-29.88,25.95-45.59c4.35,18.38,3.79,57.94,3.79,57.94c0.28,14.73-0.84,29.04-3.37,42.51l-17.54,7.44l15.43,2.38
		c-1.26,5.19-2.67,10.24-4.21,15.29l-15.01,4.35l11.92,4.35c-2.1,5.33-4.21,10.66-6.73,15.71h-24.69v6.31h21.46
		c-1.68,3.09-3.37,6.03-5.05,8.98h-16.27v6.31h12.35c-16.27,24.55-37.74,44.47-62.29,58.5c-28.34-14.17-49.8-34.79-65.52-58.5h9.4
		v-6.31h-13.47c-1.82-2.95-3.51-5.89-5.05-8.98h18.52v-6.31h-21.89c-3.79-7.58-7.01-15.43-9.82-23.29l11.08-3.09l-14.03-5.61
		c-1.4-4.63-2.67-9.12-3.79-13.75l21.6-1.54l-24.69-13.05C266.29,143.55,267.55,111.14,273.59,86.73z M65.25,362.82
		c-13.47,16.13-20.48,37.6-18.94,55.98H10.54c7.15-15.57,35.77-60.47,78-105.78c5.89,7.15,12.35,14.45,19.5,21.75
		C87.28,341.08,73.67,352.58,65.25,362.82z M459.05,428.48c-99.61-52.05-187.15-88.66-280.02-96.66
		c0.14-12.91,2.53-27.64,6.87-43.91l-8.56-2.38c-4.49,16.83-6.87,31.99-7.15,45.59c-9.68-0.7-19.5-0.98-29.32-0.98
		c-8.28,0-15.99,0.84-22.87,2.1c-8.98-8.98-16.69-17.68-23.29-25.81c11.64-12.07,25.25-23.85,40.26-34.93l20.76,14.31l-6.73-24.13
		c6.31-4.21,12.77-8.42,19.36-12.35l30.72,15.57l-14.45-24.83c4.21-2.24,8.42-4.49,12.77-6.59l42.93,28.76l-14.17-41.81
		c14.59-5.89,29.32-10.8,43.35-14.17c3.37,11.08,7.44,21.32,12.07,31.14h-19.5v6.31h22.73c1.54,3.09,3.23,6.03,4.91,8.98h-27.64
		v6.31h31.71c19.36,30.16,45.59,53.17,75.34,70.71c3.37-1.82,6.59-3.93,9.68-6.03l7.72,8.42l-13.05,20.06l22.31-10.24l12.91,13.89
		l-21.89,16.55l30.02-7.72l40.54,43.63l3.37-0.28c21.46-1.82,33.67,9.82,36.9,13.47c2.38,2.67,3.79,5.05,4.63,7.01H459.05z"/>
</g>
</svg>
